<svg id="Layer_1" data-name="Layer 1" xmlns="http://www.w3.org/2000/svg" viewBox="0 0 64 64"><defs><style>.cls-1{fill:#a4c639;}.cls-2{fill:#fff;}</style></defs><title>Android_1</title><path class="cls-1" d="M23.11,39.21a3.94,3.94,0,0,1,3.94,3.94V60.06a3.94,3.94,0,0,1-7.88,0V43.15a3.94,3.94,0,0,1,3.94-3.94Z"/><path class="cls-1" d="M14.11,18.88c0,.15,0,.3,0,.45V44.95a4.92,4.92,0,0,0,4.89,5H45a4.92,4.92,0,0,0,4.89-5V19.33c0-.15,0-.3,0-.45H14.11Z"/><path class="cls-1" d="M40.89,39.21a3.94,3.94,0,0,1,3.94,3.94V60.06a3.94,3.94,0,0,1-7.88,0V43.15a3.94,3.94,0,0,1,3.94-3.94Zm-33.14-18a3.94,3.94,0,0,1,3.94,3.94V42a3.94,3.94,0,1,1-7.88,0V25.1a3.94,3.94,0,0,1,3.94-3.94Zm48.5,0a3.94,3.94,0,0,1,3.94,3.94V42a3.94,3.94,0,1,1-7.88,0V25.1a3.94,3.94,0,0,1,3.94-3.94Zm-42-4C14.33,9.33,21.2,2.87,30,2h4c8.82.85,15.68,7.3,15.79,15.17Z"/><path class="cls-1" d="M19.75,9.73a1.26,1.26,0,0,1-1.1-.63L14.5,1.89A1.26,1.26,0,0,1,16.69.63l4.16,7.2a1.26,1.26,0,0,1-1.09,1.89Zm24.49,0a1.26,1.26,0,0,1-1.09-1.89L47.31.63A1.26,1.26,0,1,1,49.5,1.89L45.34,9.1A1.26,1.26,0,0,1,44.25,9.73Z"/><path class="cls-2" d="M26.7,10.14a2,2,0,0,1-4.08,0h0a2,2,0,0,1,4.08,0Zm15.22,0a2,2,0,0,1-4.08,0h0a2,2,0,0,1,4.08,0Z"/></svg>