<svg id="Layer_1" data-name="Layer 1" xmlns="http://www.w3.org/2000/svg" viewBox="0 0 64 64"><defs><style>.cls-1{fill:#fff;}.cls-2{fill:#53c1de;}</style></defs><title>React_1</title><path class="cls-1" d="M0,31.9c0,4.83,4.72,9.35,12.16,11.89-1.49,7.48-.27,13.51,3.81,15.86s10.42.74,16.35-4.43c5.77,5,11.6,6.92,15.67,4.56s5.46-8.86,3.93-16.57C59.66,40.64,64,36.79,64,31.9c0-4.72-4.73-8.81-12.07-11.33,1.64-8,.25-13.92-4-16.36-4.09-2.36-10-.3-15.85,4.79C26,3.59,20.16,1.94,15.92,4.39c-4.09,2.37-5.25,8.5-3.76,16.12C5,23,0,27.19,0,31.9Z"/><path class="cls-2" d="M50.38,23.07q-.91-.31-1.83-.58.15-.62.28-1.25c1.38-6.72.48-12.14-2.61-13.92S38.4,7.4,33.5,11.66q-.72.63-1.42,1.3-.46-.44-.94-.87C26,7.53,20.87,5.61,17.78,7.4s-3.84,6.81-2.59,13.18q.19.95.42,1.88c-.73.21-1.43.43-2.1.66-6,2.1-9.86,5.39-9.86,8.8S7.77,39,14,41.12q.76.26,1.54.48-.25,1-.45,2c-1.19,6.26-.26,11.23,2.69,12.94S26,56.51,31,52.16q.59-.52,1.19-1.09.75.72,1.54,1.4c4.83,4.16,9.6,5.84,12.55,4.13S50.3,49.49,49,43q-.15-.74-.34-1.52l1.06-.33c6.52-2.16,10.76-5.65,10.76-9.22s-4-6.73-10.11-8.85Z"/><path class="cls-1" d="M49,38.83l-1,.3a57,57,0,0,0-2.88-7.2,57,57,0,0,0,2.77-7.1c.58.17,1.15.35,1.69.53,5.26,1.81,8.47,4.49,8.47,6.55S54.59,37,49,38.83Zm-2.33,4.63A20.56,20.56,0,0,1,46.9,51c-.34,1.82-1,3-1.86,3.53-1.79,1-5.62-.31-9.75-3.87q-.71-.61-1.43-1.3a57.06,57.06,0,0,0,4.76-6,56.68,56.68,0,0,0,7.7-1.19q.17.7.31,1.37ZM23,54.31c-1.75.62-3.14.64-4,.15-1.79-1-2.54-5-1.52-10.38q.18-.95.42-1.89a57.1,57.1,0,0,0,7.66,1.11,59.08,59.08,0,0,0,4.88,6q-.53.51-1.08,1a20.56,20.56,0,0,1-6.36,4Zm-8.2-15.49A20.57,20.57,0,0,1,8.19,35.3c-1.41-1.21-2.12-2.41-2.12-3.38,0-2.07,3.09-4.71,8.23-6.5q1-.34,2-.62A58.23,58.23,0,0,0,19,32a59.12,59.12,0,0,0-2.8,7.28Q15.52,39.06,14.82,38.82Zm2.75-18.71C16.5,14.65,17.21,10.54,19,9.5s6.11.47,10.54,4.4l.85.79a58.19,58.19,0,0,0-4.84,6A59.33,59.33,0,0,0,18,21.86q-.22-.87-.39-1.75Zm24.52,6.05q-.83-1.44-1.73-2.84c1.81.23,3.55.53,5.18.91a51.79,51.79,0,0,1-1.82,4.89q-.79-1.49-1.64-3Zm-10-9.74a51.93,51.93,0,0,1,3.34,4q-3.36-.16-6.72,0c1.1-1.46,2.24-2.81,3.37-4ZM22,26.18q-.84,1.45-1.6,2.94c-.71-1.68-1.31-3.33-1.81-4.92,1.62-.36,3.35-.66,5.15-.88Q22.87,24.73,22,26.18Zm1.79,14.51a51.7,51.7,0,0,1-5.24-.84c.5-1.62,1.12-3.3,1.84-5q.77,1.49,1.61,2.94T23.82,40.69Zm8.34,6.89C31,46.34,29.86,45,28.74,43.49q1.63.06,3.33.06t3.43-.08A51.63,51.63,0,0,1,32.16,47.58ZM43.75,34.75a51.57,51.57,0,0,1,1.91,5,51.53,51.53,0,0,1-5.3.9q.9-1.43,1.74-2.89t1.65-3ZM40,36.54q-1.29,2.24-2.73,4.4c-1.69.12-3.43.18-5.2.18s-3.49-.06-5.15-.16q-1.47-2.15-2.78-4.41T21.71,32q1.12-2.34,2.42-4.58h0q1.29-2.25,2.76-4.39c1.69-.13,3.42-.19,5.18-.19s3.5.07,5.19.2q1.45,2.14,2.74,4.37t2.45,4.56Q41.3,34.29,40,36.54ZM45,9.43c1.9,1.1,2.64,5.52,1.45,11.33q-.12.57-.26,1.13a58.17,58.17,0,0,0-7.6-1.2,57,57,0,0,0-4.8-6q.64-.62,1.31-1.2C39.3,9.84,43.22,8.4,45,9.43Z"/><path class="cls-2" d="M32.06,26.84A5.08,5.08,0,1,1,27,31.92a5.08,5.08,0,0,1,5.08-5.08"/></svg>
